<?xml version="1.0" encoding="utf-8"?>
<!-- Generator: Adobe Illustrator 24.2.3, SVG Export Plug-In . SVG Version: 6.00 Build 0)  -->
<svg version="1.1" id="Layer_1" xmlns="http://www.w3.org/2000/svg" xmlns:xlink="http://www.w3.org/1999/xlink" x="0px" y="0px"
	 viewBox="0 0 500 500" style="enable-background:new 0 0 500 500;" xml:space="preserve">
<g>
	<path d="M190.59,215.72v92c-9.58-12.85-15.24-28.76-15.24-46S181.01,228.57,190.59,215.72z"/>
	<path d="M222.47,190.62v142.21c-4.61-1.95-8.98-4.36-13.08-7.12V197.74C213.49,194.97,217.86,192.57,222.47,190.62z"/>
	<path d="M400.55,127.79C363.77,86.11,309.96,59.82,250,59.82c-110.86,0-200.73,89.86-200.73,200.73
		c0,39.87,11.63,77.02,31.66,108.26c35.69,55.62,98.08,92.47,169.07,92.47c110.86,0,200.73-89.87,200.73-200.73
		C450.73,209.65,431.79,163.16,400.55,127.79z M250.86,371.41c-3.23,0-6.43-0.14-9.59-0.42v20.87h-18.8v-24.12
		c-4.47-1.18-8.84-2.63-13.08-4.35v28.47h-18.8V353.6c-30.44-19.76-50.57-54.05-50.57-93.05c0-38.99,20.13-73.28,50.57-93.04v-38.26
		h18.8v28.46c4.24-1.71,8.61-3.16,13.08-4.34v-24.12h18.8v20.87c3.16-0.29,6.36-0.43,9.59-0.43c40.1,0,75.22,21.28,94.67,53.16
		l-29.45,13.63c-14.12-19.44-37.09-32.1-63.03-32.1c-4.01,0-7.94,0.31-11.78,0.88v152.92c3.84,0.58,7.77,0.88,11.78,0.88
		c26.71,0,50.28-13.42,64.26-33.86l28.22,13.06C326.08,350.14,290.96,371.41,250.86,371.41z M344.44,265.25l-6.95,21.09l-6.94-21.09
		l-21.1-6.95l21.1-6.94l6.94-21.09l6.95,21.09l21.09,6.94L344.44,265.25z"/>
</g>
</svg>
