<?xml version="1.0" encoding="utf-8"?>
<!-- Generator: Adobe Illustrator 24.2.3, SVG Export Plug-In . SVG Version: 6.00 Build 0)  -->
<svg version="1.1" id="Layer_1" xmlns="http://www.w3.org/2000/svg" xmlns:xlink="http://www.w3.org/1999/xlink" x="0px" y="0px"
	 viewBox="0 0 500 500" style="enable-background:new 0 0 500 500;" xml:space="preserve">
<g>
	<path d="M280.7,297.67l-85.65-33.65c-6.82-2.68-10.18-10.38-7.5-17.21l15.3-38.95c2.68-6.82,10.38-10.18,17.21-7.5l85.65,33.65
		c6.82,2.68,10.18,10.38,7.5,17.21l-15.3,38.95C295.22,297,287.52,300.35,280.7,297.67z"/>
	<path d="M154.46,192.46l37.68-95.9c1.27-3.23,4.92-4.82,8.15-3.55l9.17,3.6c3.23,1.27,4.82,4.92,3.55,8.15l-37.68,95.9
		c-1.27,3.23-4.92,4.82-8.15,3.55l-9.17-3.6C154.78,199.34,153.19,195.69,154.46,192.46z"/>
	<path d="M98.57,170.63l37.78-96.14c1.24-3.17,4.82-4.73,7.99-3.48l9.41,3.7c3.17,1.24,4.73,4.82,3.48,7.99l-37.78,96.14
		c-1.24,3.17-4.82,4.73-7.99,3.48l-9.41-3.7C98.88,177.38,97.32,173.8,98.57,170.63z"/>
	<path d="M103.35,322.53l37.64-95.8c1.28-3.26,4.96-4.86,8.22-3.58l9.07,3.56c3.26,1.28,4.86,4.96,3.58,8.22l-37.64,95.8
		c-1.28,3.26-4.96,4.86-8.22,3.58l-9.07-3.56C103.67,329.47,102.07,325.79,103.35,322.53z"/>
	<path d="M47.52,300.55l37.61-95.72c1.29-3.28,5-4.9,8.28-3.61l8.99,3.53c3.28,1.29,4.9,5,3.61,8.28L68.4,308.75
		c-1.29,3.28-5,4.9-8.28,3.61l-8.99-3.53C47.85,307.54,46.23,303.83,47.52,300.55z"/>
	<path d="M394.07,286.74l37.78-96.14c1.24-3.17,4.82-4.73,7.99-3.48l9.41,3.7c3.17,1.24,4.73,4.82,3.48,7.99l-37.78,96.14
		c-1.24,3.17-4.82,4.73-7.99,3.48l-9.41-3.7C394.38,293.48,392.82,289.91,394.07,286.74z"/>
	<path d="M338.87,264.92l37.68-95.9c1.27-3.23,4.92-4.82,8.15-3.55l9.17,3.6c3.23,1.27,4.82,4.92,3.55,8.15l-37.68,95.9
		c-1.27,3.23-4.92,4.82-8.15,3.55l-9.17-3.6C339.19,271.8,337.6,268.15,338.87,264.92z"/>
	<path d="M342.92,416.91l37.81-96.24c1.23-3.14,4.78-4.68,7.92-3.45l9.51,3.74c3.14,1.23,4.68,4.78,3.45,7.92l-37.81,96.24
		c-1.23,3.14-4.78,4.68-7.92,3.45l-9.51-3.74C343.23,423.6,341.68,420.05,342.92,416.91z"/>
	<path d="M287.68,395.21l37.81-96.24c1.23-3.14,4.78-4.68,7.92-3.45l9.51,3.74c3.14,1.23,4.68,4.78,3.45,7.92l-37.81,96.24
		c-1.23,3.14-4.78,4.68-7.92,3.45l-9.51-3.74C287.99,401.89,286.44,398.35,287.68,395.21z"/>
	<rect x="129.19" y="184.23" transform="matrix(0.9307 0.3657 -0.3657 0.9307 82.6341 -33.9179)" width="3.33" height="33.88"/>
	<path d="M126.57,181.4l37.62-95.73c1.29-3.28,4.99-4.89,8.27-3.6l9,3.54c3.28,1.29,4.89,4.99,3.6,8.27l-37.62,95.73
		c-1.29,3.28-4.99,4.89-8.27,3.6l-9-3.54C126.89,188.38,125.28,184.68,126.57,181.4z"/>
	<path d="M75.4,311.63l37.7-95.95c1.26-3.22,4.9-4.8,8.12-3.54l9.22,3.62c3.22,1.26,4.8,4.9,3.54,8.12l-37.7,95.95
		c-1.26,3.22-4.9,4.8-8.12,3.54l-9.22-3.62C75.72,318.49,74.13,314.85,75.4,311.63z"/>
	<rect x="368.84" y="278.4" transform="matrix(0.9307 0.3657 -0.3657 0.9307 133.6716 -115.0377)" width="3.33" height="33.88"/>
	<path d="M366.16,275.74l37.75-96.07c1.25-3.19,4.85-4.75,8.04-3.5l9.34,3.67c3.19,1.25,4.75,4.85,3.5,8.04l-37.75,96.07
		c-1.25,3.19-4.85,4.75-8.04,3.5l-9.34-3.67C366.47,282.52,364.9,278.92,366.16,275.74z"/>
	<path d="M315.03,405.86l37.75-96.07c1.25-3.19,4.85-4.75,8.04-3.5l9.34,3.67c3.19,1.25,4.75,4.85,3.5,8.04l-37.75,96.07
		c-1.25,3.19-4.85,4.75-8.04,3.5l-9.34-3.67C315.34,412.64,313.78,409.05,315.03,405.86z"/>
	<rect x="90.02" y="242.85" transform="matrix(0.9307 0.3657 -0.3657 0.9307 108.6357 -73.9736)" width="319.14" height="13.86"/>
	<rect x="155.91" y="195.61" transform="matrix(0.9307 0.3657 -0.3657 0.9307 88.6462 -42.901)" width="3.33" height="33.88"/>
	<rect x="341.23" y="268.52" transform="matrix(0.9307 0.3657 -0.3657 0.9307 128.1121 -105.6287)" width="3.31" height="33.7"/>
	<rect x="100.97" y="174.03" transform="matrix(0.9307 0.3657 -0.3657 0.9307 76.9458 -24.3043)" width="3.33" height="33.88"/>
	<rect x="396.82" y="290.36" transform="matrix(0.9307 0.3657 -0.3657 0.9307 139.9498 -124.4437)" width="3.31" height="33.7"/>
	<rect x="231.76" y="264.14" transform="matrix(0.9307 0.3657 -0.3657 0.9307 120.581 -66.458)" width="7.91" height="41.87"/>
	<path d="M243.98,320.41l-37.51-14.74c-3.29-1.29-4.91-5.01-3.62-8.3l1.85-4.71c1.29-3.29,5.01-4.91,8.3-3.62l37.51,14.74
		c3.29,1.29,4.91,5.01,3.62,8.3l-1.85,4.71C250.98,320.08,247.27,321.7,243.98,320.41z"/>
</g>
</svg>
