<?xml version="1.0" standalone="no"?>
<!DOCTYPE svg PUBLIC "-//W3C//DTD SVG 20010904//EN"
 "http://www.w3.org/TR/2001/REC-SVG-20010904/DTD/svg10.dtd">
<svg version="1.0" xmlns="http://www.w3.org/2000/svg"
 width="376.000000pt" height="376.000000pt" viewBox="0 0 376.000000 376.000000"
 preserveAspectRatio="xMidYMid meet">
<metadata>
Created by potrace 1.14, written by Peter Selinger 2001-2017
</metadata>
<g transform="translate(0.000000,376.000000) scale(0.100000,-0.100000)"
fill="#000000" stroke="none">
<path d="M990 3487 l0 -273 -87 -64 c-195 -144 -374 -361 -476 -575 -69 -145
-126 -327 -143 -460 -3 -27 -8 -61 -10 -75 -5 -35 -5 -301 0 -325 2 -11 9 -56
16 -100 25 -164 107 -388 196 -538 115 -191 289 -377 478 -510 l26 -18 0 -272
0 -273 138 0 139 1 -1 188 c-1 104 2 193 5 199 10 16 169 -41 170 -61 0 -9 1
-85 1 -169 0 -83 3 -153 6 -153 4 -1 67 -2 140 -3 l132 -2 1 106 c0 58 0 124
-1 146 l-1 41 140 1 c78 0 153 3 168 6 16 3 48 8 73 11 25 3 88 17 141 30 376
94 709 328 928 653 l42 63 -88 40 c-79 37 -203 95 -291 136 -18 9 -34 14 -35
12 -23 -36 -95 -118 -146 -170 -148 -147 -359 -256 -571 -294 -56 -11 -286
-18 -324 -11 l-35 7 0 1084 c0 597 3 1085 7 1086 4 0 16 2 27 5 39 8 221 5
290 -5 123 -18 235 -55 350 -114 119 -61 284 -195 350 -286 17 -22 35 -41 40
-41 10 0 413 184 421 193 4 3 -70 114 -111 167 -65 83 -260 263 -350 322 -197
130 -442 230 -623 254 -20 2 -66 8 -102 13 -36 5 -118 8 -183 7 l-118 -1 1 80
c1 44 1 110 1 148 l-1 67 -139 0 -138 0 -1 -137 c0 -76 -1 -154 -1 -173 -1
-36 -1 -36 -83 -63 -45 -14 -84 -24 -87 -22 -2 3 -5 92 -5 197 l-1 193 -137 3
-138 3 0 -274z m452 -1614 c0 -543 -1 -994 -1 -1001 -1 -12 -112 39 -155 71
-19 14 -19 39 -19 921 0 596 3 910 10 917 14 14 157 88 162 84 2 -2 3 -449 3
-992z m-452 -10 l0 -637 -26 35 c-56 75 -138 269 -158 374 -4 17 -9 41 -12 55
-13 54 -11 278 2 351 21 118 52 217 94 300 29 57 90 159 96 159 2 0 4 -287 4
-637z"/>
<path d="M3034 2168 l-50 -151 -139 -47 c-77 -25 -147 -49 -155 -51 -8 -3 55
-29 140 -57 l156 -52 49 -150 c27 -82 51 -147 55 -144 3 3 28 71 55 151 l50
145 154 51 155 51 -154 51 c-84 28 -157 58 -161 66 -4 8 -27 73 -50 144 -23
72 -44 133 -48 137 -4 4 -29 -61 -57 -144z"/>
</g>
</svg>
